<svg height="480pt" viewBox="0 -80 480 480" width="480pt" xmlns="http://www.w3.org/2000/svg"><path d="m312 40v272h160v-272zm0 0" fill="#4db7e5"/><path d="m360 264h64v48h-64zm0 0" fill="#348fd9"/><path d="m384 264h16v48h-16zm0 0" fill="#2a71ad"/><g fill="#348fd9"><path d="m344 200h32v32h-32zm0 0"/><path d="m408 200h32v32h-32zm0 0"/><path d="m344 136h32v32h-32zm0 0"/><path d="m408 136h32v32h-32zm0 0"/><path d="m344 72h32v32h-32zm0 0"/><path d="m408 72h32v32h-32zm0 0"/></g><path d="m344 72h32v16h-32zm0 0" fill="#2a71ad"/><path d="m408 72h32v16h-32zm0 0" fill="#2a71ad"/><path d="m344 136h32v16h-32zm0 0" fill="#2a71ad"/><path d="m408 136h32v16h-32zm0 0" fill="#2a71ad"/><path d="m344 200h32v16h-32zm0 0" fill="#2a71ad"/><path d="m408 200h32v16h-32zm0 0" fill="#2a71ad"/><path d="m328 8h128v32h-128zm0 0" fill="#79c6e8"/><path d="m360 264h64v16h-64zm0 0" fill="#2a71ad"/><path d="m312 168v64l32-32zm0 0" fill="#48add9"/><path d="m8 40v272h160v-272zm0 0" fill="#4db7e5"/><path d="m56 264h64v48h-64zm0 0" fill="#348fd9"/><path d="m80 264h16v48h-16zm0 0" fill="#2a71ad"/><path d="m40 200h32v32h-32zm0 0" fill="#348fd9"/><path d="m104 200h32v32h-32zm0 0" fill="#348fd9"/><path d="m40 136h32v32h-32zm0 0" fill="#348fd9"/><path d="m104 136h32v32h-32zm0 0" fill="#348fd9"/><path d="m40 72h32v32h-32zm0 0" fill="#348fd9"/><path d="m104 72h32v32h-32zm0 0" fill="#348fd9"/><path d="m40 72h32v16h-32zm0 0" fill="#2a71ad"/><path d="m104 72h32v16h-32zm0 0" fill="#2a71ad"/><path d="m40 136h32v16h-32zm0 0" fill="#2a71ad"/><path d="m104 136h32v16h-32zm0 0" fill="#2a71ad"/><path d="m40 200h32v16h-32zm0 0" fill="#2a71ad"/><path d="m104 200h32v16h-32zm0 0" fill="#2a71ad"/><path d="m24 8h128v32h-128zm0 0" fill="#79c6e8"/><path d="m56 264h64v16h-64zm0 0" fill="#2a71ad"/><path d="m336 184-56-56v32h-80v-32l-56 56 56 56v-32h80v32zm0 0" fill="#ffb531"/><path d="m336 184-56-56v32h-8l-48 48h56v32zm0 0" fill="#ffa912"/><path d="m8 320h160c4.417969 0 8-3.582031 8-8v-64h-16v56h-32v-40c0-4.417969-3.582031-8-8-8h-64c-4.417969 0-8 3.582031-8 8v40h-32v-256h144v72h16v-80c0-4.417969-3.582031-8-8-8h-8v-24c0-4.417969-3.582031-8-8-8h-128c-4.417969 0-8 3.582031-8 8v24h-8c-4.417969 0-8 3.582031-8 8v272c0 4.417969 3.582031 8 8 8zm104-16h-16v-32h16zm-48-32h16v32h-16zm-32-256h112v16h-112zm0 0"/><path d="m72 192h-32c-4.417969 0-8 3.582031-8 8v32c0 4.417969 3.582031 8 8 8h32c4.417969 0 8-3.582031 8-8v-32c0-4.417969-3.582031-8-8-8zm-8 32h-16v-16h16zm0 0"/><path d="m96 232c0 4.417969 3.582031 8 8 8h32c4.417969 0 8-3.582031 8-8v-24h-16v16h-16v-16h16v-16h-24c-4.417969 0-8 3.582031-8 8zm0 0"/><path d="m80 136c0-4.417969-3.582031-8-8-8h-32c-4.417969 0-8 3.582031-8 8v32c0 4.417969 3.582031 8 8 8h32c4.417969 0 8-3.582031 8-8zm-16 24h-16v-16h16zm0 0"/><path d="m96 168c0 4.417969 3.582031 8 8 8h24v-16h-16v-16h16v16h16v-24c0-4.417969-3.582031-8-8-8h-32c-4.417969 0-8 3.582031-8 8zm0 0"/><path d="m80 72c0-4.417969-3.582031-8-8-8h-32c-4.417969 0-8 3.582031-8 8v32c0 4.417969 3.582031 8 8 8h32c4.417969 0 8-3.582031 8-8zm-16 24h-16v-16h16zm0 0"/><path d="m104 112h32c4.417969 0 8-3.582031 8-8v-32c0-4.417969-3.582031-8-8-8h-32c-4.417969 0-8 3.582031-8 8v32c0 4.417969 3.582031 8 8 8zm8-32h16v16h-16zm0 0"/><path d="m472 32h-8v-24c0-4.417969-3.582031-8-8-8h-128c-4.417969 0-8 3.582031-8 8v24h-8c-4.417969 0-8 3.582031-8 8v80h16v-72h144v256h-32v-40c0-4.417969-3.582031-8-8-8h-64c-4.417969 0-8 3.582031-8 8v40h-32v-56h-16v64c0 4.417969 3.582031 8 8 8h160c4.417969 0 8-3.582031 8-8v-272c0-4.417969-3.582031-8-8-8zm-104 240h16v32h-16zm32 32v-32h16v32zm-64-272v-16h112v16zm0 0"/><path d="m376 192h-24v16h16v16h-16v-16h-16v24c0 4.417969 3.582031 8 8 8h32c4.417969 0 8-3.582031 8-8v-32c0-4.417969-3.582031-8-8-8zm0 0"/><path d="m400 232c0 4.417969 3.582031 8 8 8h32c4.417969 0 8-3.582031 8-8v-32c0-4.417969-3.582031-8-8-8h-32c-4.417969 0-8 3.582031-8 8zm16-24h16v16h-16zm0 0"/><path d="m336 160h16v-16h16v16h-16v16h24c4.417969 0 8-3.582031 8-8v-32c0-4.417969-3.582031-8-8-8h-32c-4.417969 0-8 3.582031-8 8zm0 0"/><path d="m400 168c0 4.417969 3.582031 8 8 8h32c4.417969 0 8-3.582031 8-8v-32c0-4.417969-3.582031-8-8-8h-32c-4.417969 0-8 3.582031-8 8zm16-24h16v16h-16zm0 0"/><path d="m344 112h32c4.417969 0 8-3.582031 8-8v-32c0-4.417969-3.582031-8-8-8h-32c-4.417969 0-8 3.582031-8 8v32c0 4.417969 3.582031 8 8 8zm8-32h16v16h-16zm0 0"/><path d="m408 112h32c4.417969 0 8-3.582031 8-8v-32c0-4.417969-3.582031-8-8-8h-32c-4.417969 0-8 3.582031-8 8v32c0 4.417969 3.582031 8 8 8zm8-32h16v16h-16zm0 0"/><path d="m138.34375 189.65625 56 56c2.289062 2.285156 5.730469 2.972656 8.71875 1.734375s4.9375-4.15625 4.9375-7.390625v-24h64v24c0 3.234375 1.949219 6.152344 4.9375 7.390625s6.429688.550781 8.71875-1.734375l56-56c3.121094-3.125 3.121094-8.1875 0-11.3125l-56-56c-2.289062-2.285156-5.730469-2.972656-8.71875-1.734375s-4.9375 4.15625-4.9375 7.390625v24h-64v-24c0-3.234375-1.949219-6.152344-4.9375-7.390625s-6.429688-.550781-8.71875 1.734375l-56 56c-3.121094 3.125-3.121094 8.1875 0 11.3125zm53.65625-42.34375v12.6875c0 4.417969 3.582031 8 8 8h80c4.417969 0 8-3.582031 8-8v-12.6875l36.6875 36.6875-36.6875 36.6875v-12.6875c0-4.417969-3.582031-8-8-8h-80c-4.417969 0-8 3.582031-8 8v12.6875l-36.6875-36.6875zm0 0"/></svg>