<?xml version="1.0"?>
<svg xmlns="http://www.w3.org/2000/svg" id="filled_outline" data-name="filled outline" viewBox="0 0 512 512" width="512" height="512"><rect x="264" y="24" width="224" height="200" rx="16" style="fill:#548aff"/><polygon points="424 88 448 184 304 184 328 88 424 88" style="fill:#ffc431"/><path d="M272,272V496H64V384H24V304a56,56,0,0,1,56-56H248A24,24,0,0,1,272,272Z" style="fill:#ffb401"/><path d="M200,200v52a36,36,0,0,1-72,0V200Z" style="fill:#ffceb6"/><path d="M224,136v72a48,48,0,0,1-48,48H176a48,48,0,0,1-48-48V176l40-40Z" style="fill:#ffceb6"/><path d="M224,136l5.06751-2.53375A19.77708,19.77708,0,0,0,240,115.77715v0a19.77706,19.77706,0,0,0-19.77707-19.77707H168a40,40,0,0,0-40,40v40l40-40Z" style="fill:#c47220"/><path d="M240,336V296a16,16,0,0,1,16-16h24a16,16,0,0,1,16,16v40Z" style="fill:#548aff"/><polygon points="400 184 424 88 448 184 400 184" style="fill:#ffb401"/><path d="M104,376v32l104-64,13.60106-34.00266A9.54065,9.54065,0,0,1,230.45933,304h0A9.54064,9.54064,0,0,1,240,313.54065V328h53.26924A10.73075,10.73075,0,0,1,304,338.73076h0a10.73079,10.73079,0,0,1-4.16946,8.49109L148.94207,463.81749A77.534,77.534,0,0,1,101.5341,480h-.0001A77.534,77.534,0,0,1,24,402.466V376Z" style="fill:#ffceb6"/><circle cx="168" cy="176.00006" r="8"/><path d="M200,224V208H179.31348a19.18705,19.18705,0,0,1-13.65674-5.65674l-11.31348,11.31348A35.08178,35.08178,0,0,0,179.31348,224Z"/><circle cx="200" cy="176.00006" r="8"/><path d="M56,474.81952V496H72V482.74011a85.53719,85.53719,0,0,0,81.8335-12.59265L264,385.01929V496h16V372.65576l24.72168-19.103A18.7077,18.7077,0,0,0,304,323.4021V296a24.02687,24.02687,0,0,0-24-24H256a24.02687,24.02687,0,0,0-24,24v.07806c-.50861-.04455-1.02057-.07806-1.54053-.07806a17.45558,17.45558,0,0,0-16.28613,11.02637l-12.61865,31.54687L112,393.68359V328H96v40H32V304a48.05436,48.05436,0,0,1,48-48h40.19006a43.99139,43.99139,0,0,0,87.61988,0H248V240H221.91663A55.67155,55.67155,0,0,0,232,208V140.94409l.645-.32251A27.777,27.777,0,0,0,220.22314,88H168a48.05436,48.05436,0,0,0-48,48V240H80a64.0727,64.0727,0,0,0-64,64v98.46582A85.53045,85.53045,0,0,0,56,474.81952ZM168,104h52.22314a11.7772,11.7772,0,0,1,5.26661,22.311L222.11182,128H168a7.99877,7.99877,0,0,0-5.65674,2.34326L136,156.68652V136A32.036,32.036,0,0,1,168,104Zm-32,75.31348L171.31348,144H216v64a40,40,0,0,1-80,0ZM176,264a55.902,55.902,0,0,0,14.06439-1.79047A27.99529,27.99529,0,0,1,136,252v-4.86169A55.82375,55.82375,0,0,0,176,264Zm72,32a8.00917,8.00917,0,0,1,8-8h24a8.00917,8.00917,0,0,1,8,8v24H248ZM32,384H96v24a8.00045,8.00045,0,0,0,12.19287,6.81348l104-64a7.99964,7.99964,0,0,0,3.23486-3.84229l13.60157-34.00293a1.54046,1.54046,0,0,1,2.9707.57227V328a7.99977,7.99977,0,0,0,8,8h53.269a2.73078,2.73078,0,0,1,1.66992,4.8916L144.05029,457.4873A69.534,69.534,0,0,1,32,402.46582Z"/><path d="M472,16H280a24.02687,24.02687,0,0,0-24,24V208a24.02687,24.02687,0,0,0,24,24H472a24.02687,24.02687,0,0,0,24-24V40A24.02687,24.02687,0,0,0,472,16Zm8,192a8.00917,8.00917,0,0,1-8,8H280a8.00917,8.00917,0,0,1-8-8V40a8.00917,8.00917,0,0,1,8-8H472a8.00917,8.00917,0,0,1,8,8Z"/><circle cx="288" cy="48" r="8"/><circle cx="312" cy="48" r="8"/><circle cx="336" cy="48" r="8"/><path d="M431.76123,86.05957A8.00059,8.00059,0,0,0,424,80H400V72a24,24,0,0,0-48,0v8H328a8.00059,8.00059,0,0,0-7.76123,6.05957l-24,96A8.0001,8.0001,0,0,0,304,192H448a8.0001,8.0001,0,0,0,7.76123-9.94043ZM368,72a8,8,0,0,1,16,0v8H368ZM334.24609,96H352v16h16V96h16v16h16V96h13.75366l-20,80H314.24609Zm76.00025,80,13.75378-55.01514L437.75391,176Z"/></svg>
