<svg id="Layer_1_1_" enable-background="new 0 0 64 64" height="512" viewBox="0 0 64 64" width="512" xmlns="http://www.w3.org/2000/svg"><path d="m17 58v3l6-6-6-6v3c-3.314 0-6-2.686-6-6v-2h-8c0 7.732 6.268 14 14 14z" fill="#d64528"/><path d="m47 6v-3l-6 6 6 6v-3c3.314 0 6 2.686 6 6v2h8c0-7.732-6.268-14-14-14z" fill="#d64528"/><path d="m54.236 53.882c-.759-.728-1.236-1.747-1.236-2.882v-1.465c-.449.299-.917.573-1.424.79-1.006.431-2.145.431-3.151 0-.507-.217-.976-.491-1.424-.79v1.465c0 1.135-.477 2.154-1.236 2.882l4.235 2.118z" fill="#ffe5cf"/><path d="m52 37.049v-.049l.215 1.076c.459 2.294 2.446 3.964 4.785 4.022v-3.098c0-3.314-2.686-6-6-6h-2c-3.314 0-6 2.686-6 6v3.099l4.05-.044c2.742-.031 4.95-2.263 4.95-5.006z" fill="#633f0e"/><path d="m51.576 50.325c.507-.217.976-.491 1.424-.79 2.462-1.639 4-4.408 4-7.436-2.339-.058-4.326-1.728-4.785-4.022l-.215-1.077v.049c0 2.743-2.208 4.975-4.95 5.005l-4.05.045c0 3.028 1.538 5.797 4 7.436.449.299.917.573 1.424.79 1.007.431 2.145.431 3.152 0z" fill="#ffe5cf"/><path d="m51 33h-2c-3.314 0-6 2.686-6 6v1.901c0-3.314 2.686-6 6-6h2c3.314 0 6 2.686 6 6v-1.901c0-3.314-2.686-6-6-6z" fill="#754b11"/><path d="m51.857 55.071 2.379-1.19c-.759-.727-1.236-1.746-1.236-2.881v-1.465c-.449.299-.917.573-1.424.79-1.006.431-2.145.431-3.151 0-.507-.217-.976-.491-1.424-.79v1.165z" fill="#e8d0bc"/><path d="m45.764 53.882c-.719.689-1.69 1.118-2.764 1.118-1.202 0-2.267.541-3 1.38-.615.703-1 1.613-1 2.62v2h11v-5z" fill="#ffd45a"/><path d="m54.236 53.882c.719.689 1.69 1.118 2.764 1.118 1.202 0 2.267.541 3 1.38.615.703 1 1.613 1 2.62v2h-11v-5z" fill="#ffd45a"/><path d="m21 13v24h6 10v-24z" fill="#3449a3"/><path d="m3 3v34h5v-10h8v10h5v-24-10z" fill="#3449a3"/><path d="m8 27h8v10h-8z" fill="#57a5ff"/><path d="m21 13h1.75v24h-1.75z" fill="#2a3b85"/><g fill="#57a5ff"><path d="m7 6h2v2h-2z"/><path d="m11 6h2v2h-2z"/><path d="m15 6h2v2h-2z"/><path d="m7 11h2v2h-2z"/><path d="m11 11h2v2h-2z"/><path d="m15 11h2v2h-2z"/><path d="m7 16h2v2h-2z"/><path d="m11 16h2v2h-2z"/><path d="m15 16h2v2h-2z"/><path d="m7 21h2v2h-2z"/><path d="m11 21h2v2h-2z"/><path d="m15 21h2v2h-2z"/><path d="m24 16h2v2h-2z"/><path d="m28 16h2v2h-2z"/><path d="m32 16h2v2h-2z"/><path d="m24 21h2v2h-2z"/><path d="m28 21h2v2h-2z"/><path d="m32 21h2v2h-2z"/><path d="m24 26h2v2h-2z"/><path d="m28 26h2v2h-2z"/><path d="m32 26h2v2h-2z"/></g></svg>