<svg height="512" viewBox="0 0 64 64" width="512" xmlns="http://www.w3.org/2000/svg"><g id="email-love-heart-hand-letter"><path d="m41 53v8h20v-8h-1.991-15.009z" fill="#9bc9ff"/><path d="m52.37 9.55a1.944 1.944 0 0 0 -1.37-.55h-46a2.019 2.019 0 0 0 -2 2v28a2.026 2.026 0 0 0 2 2h43.7a6.266 6.266 0 0 1 .952-6.6l-5.252-5.25a3.005 3.005 0 0 1 4.25-4.25l4.35 4.35v-18.25a1.97 1.97 0 0 0 -.63-1.45zm-24.37 24.45-5.66-5.66-1.41-1.41a4 4 0 0 1 5.66-5.66l1.41 1.41 1.41-1.41a4 4 0 0 1 5.66 5.66l-1.41 1.41z" fill="#9bc9ff"/><path d="m60.17 51.05.65-.98a7 7 0 0 0 1.18-3.89v-13.7a8.942 8.942 0 0 0 -2.64-6.36l-5.36-5.36v-9.76a3 3 0 0 0 -3-3h-46a3.009 3.009 0 0 0 -3 3v28a3.009 3.009 0 0 0 3 3h35.87a10.878 10.878 0 0 0 1.73 7.69l.4.61v1.7h-2a1 1 0 0 0 -1 1v8a1 1 0 0 0 1 1h20a1 1 0 0 0 1-1v-8a1 1 0 0 0 -1-1h-1v-.39a1 1 0 0 1 .17-.56zm-8.17-40.04v15.83l-2.65-2.65a4.092 4.092 0 0 0 -5.66.01 4.026 4.026 0 0 0 0 5.66l4.64 4.64a6.823 6.823 0 0 0 -.69 1.41l-11.72-8.45a4.964 4.964 0 0 0 1.32-3.36 4.766 4.766 0 0 0 -.3-1.64zm-1.98-1.01-14.11 10.73c-.05-.06-.08-.12-.13-.17a5.034 5.034 0 0 0 -7.08 0l-.7.71-.71-.71a5.022 5.022 0 0 0 -7.07 0c-.05.05-.08.11-.13.17l-14.12-10.73zm-14.78 14.1a2.956 2.956 0 0 1 -.88 2.12l-6.36 6.37-6.36-6.37a3 3 0 1 1 4.24-4.24l1.41 1.41a1.008 1.008 0 0 0 1.42 0l1.41-1.41a3 3 0 0 1 4.24 0 2.956 2.956 0 0 1 .88 2.12zm-31.23 14.94c0-.01-.01-.03-.01-.04v-27.98l15.06 11.44a4.766 4.766 0 0 0 -.3 1.64 4.964 4.964 0 0 0 1.32 3.36zm2.09.96 15.39-11.09 5.8 5.8a1.014 1.014 0 0 0 1.42 0l5.8-5.8 12.67 9.13a7.146 7.146 0 0 0 .14 1.96zm53.9 20h-18v-6h18zm-.84-11.04-.65.98a2.966 2.966 0 0 0 -.51 1.68v.38h-13v-2a.967.967 0 0 0 -.17-.55l-.57-.87a8.861 8.861 0 0 1 -1.35-6.58h5.15a7.911 7.911 0 0 0 .69 1.05l.47.58a1.02 1.02 0 0 0 .78.37 1 1 0 0 0 .78-1.63l-.47-.57a5.308 5.308 0 0 1 .1-6.75 1 1 0 0 0 -.05-1.36l-5.25-5.24a2.025 2.025 0 0 1 -.01-2.84 2.074 2.074 0 0 1 2.84 0l7.07 7.07a1 1 0 0 0 1.42-1.42l-2.43-2.42v-5.26l3.95 3.95a6.977 6.977 0 0 1 2.05 4.95v13.7a5.016 5.016 0 0 1 -.84 2.78z" fill="#1e81ce"/></g></svg>