<svg height="512" viewBox="0 0 60 60" width="512" xmlns="http://www.w3.org/2000/svg"><g id="Page-1" fill="none" fill-rule="evenodd"><g id="029---Cloud-Accounts" fill-rule="nonzero"><path id="Shape" d="m13 37h-1c-6.07513225 0-11-4.9248678-11-11s4.92486775-11 11-11c.623565-.0030798 1.2461215.0504735 1.86.16 1.427149-3.0326141 4.4212431-5.02097 7.77-5.16 1.9678376-6.08875505 8.0738821-9.84005753 14.3946544-8.84348326s10.976386 6.4446301 10.9753456 12.84348326c.019924.3497165.019924.7002835 0 1.05.34 0 .7-.05 1-.05 6.0751322.0000001 10.9999998 4.9248678 10.9999998 11s-4.9248676 10.9999999-10.9999998 11z" fill="#00bcd4"/><path id="Shape" d="m48 15c-.35 0-.71 0-1 .05.019924-.3497165.019924-.7002835 0-1.05 0-3.4478144-1.3696389-6.75441524-3.8076118-9.19238816-2.437973-2.43797292-5.7445738-3.80761184-9.1923882-3.80761184-.49788.00446883-.9952019.0345084-1.49.09 6.5501491.76600988 11.4889823 6.31521239 11.49 12.91.019924.3497165.019924.7002835 0 1.05.34 0 .7-.05 1-.05 5.6723409.0182317 10.4006953 4.3467764 10.9186843 9.9954462s-3.3442621 10.7649821-8.9186843 11.8145538v.19h1c6.0751322 0 11-4.9248678 11-11s-4.9248678-11-11-11z" fill="#00838f"/><path id="Shape" d="m40.83 9.15c-.2923118.00001923-.5699973-.12786225-.76-.35-1.5177498-1.77444941-3.7349995-2.79723347-6.07-2.8-.5522847 0-1-.44771525-1-1s.4477153-1 1-1c2.9180174.00022682 5.6903707 1.27499794 7.59 3.49.1724034.201559.2576705.46335301.2370412.72778336-.0206293.26443034-.145465.50983336-.3470412.68221664-.179713.15852397-.4103774.24724105-.65.25z" fill="#f5f5f5"/><path id="Shape" d="m25 47c.0004225 3.2489696-1.3165793 6.3592587-3.65 8.62-.91-2.55-3.1-5.62-8.35-5.62 2.7614237 0 5-2.2385763 5-5s-2.2385763-5-5-5-5 2.2385763-5 5 2.2385763 5 5 5c-5.25 0-7.44 3.07-8.35 5.62-3.91751664-3.7954974-4.78238592-9.7556177-2.10525542-14.5080601 2.67713051-4.7524425 8.22268002-7.1014664 13.49891642-5.7179686 5.2762365 1.3834979 8.9556296 6.1514218 8.956339 11.6060287z" fill="#ef314c"/><path id="Shape" d="m13 35c-.5015694.0027679-1.0025018.0361634-1.5.1 4.0526733.5176751 7.563516 3.0617292 9.317462 6.7516916 1.7539459 3.6899624 1.5099806 8.0187854-.647462 11.4883084.4961872.702195.8932545 1.4694097 1.18 2.28 3.5118013-3.4011465 4.6092266-8.5926953 2.774258-13.1240788s-6.2354396-7.4965775-11.124258-7.4959212z" fill="#bb193b"/><path id="Shape" d="m21.35 55.62c-4.6536965 4.5087473-12.04630349 4.5087473-16.7 0 .91-2.55 3.1-5.62 8.35-5.62s7.44 3.07 8.35 5.62z" fill="#9d27b0"/><path id="Shape" d="m13 50c-.5016173.0014169-1.0026338.034818-1.5.1 3.1808893.3067162 5.8741041 2.4770148 6.85 5.52-1.8642107 1.8115652-4.2699086 2.9634905-6.85 3.28.4974982.0638366.9984306.0972321 1.5.1 3.1182972.0088981 6.1159215-1.2045115 8.35-3.38-.91-2.55-3.1-5.62-8.35-5.62z" fill="#6a1b9a"/><path id="Shape" d="m55.35 55.62c-4.6536965 4.5087473-12.0463035 4.5087473-16.7 0 .91-2.55 3.1-5.62 8.35-5.62s7.44 3.07 8.35 5.62z" fill="#9d27b0"/><path id="Shape" d="m47 50c-.5016173.0014169-1.0026338.034818-1.5.1 3.1808893.3067162 5.8741041 2.4770148 6.85 5.52-1.8642107 1.8115652-4.2699086 2.9634905-6.85 3.28.4974982.0638366.9984306.0972321 1.5.1 3.1182972.0088981 6.1159215-1.2045115 8.35-3.38-.91-2.55-3.1-5.62-8.35-5.62z" fill="#6a1b9a"/><path id="Shape" d="m59 47c.0004225 3.2489696-1.3165793 6.3592587-3.65 8.62-.91-2.55-3.1-5.62-8.35-5.62 2.7614237 0 5-2.2385763 5-5s-2.2385763-5-5-5-5 2.2385763-5 5 2.2385763 5 5 5c-5.25 0-7.44 3.07-8.35 5.62-3.9175166-3.7954974-4.7823859-9.7556177-2.1052554-14.5080601 2.6771305-4.7524425 8.22268-7.1014664 13.4989164-5.7179686 5.2762365 1.3834979 8.9556296 6.1514218 8.956339 11.6060287z" fill="#ef314c"/><path id="Shape" d="m47 35c-.5015694.0027679-1.0025018.0361634-1.5.1 4.0526733.5176751 7.563516 3.0617292 9.317462 6.7516916 1.7539459 3.6899624 1.5099806 8.0187854-.647462 11.4883084.4961872.702195.8932545 1.4694097 1.18 2.28 3.5118013-3.4011465 4.6092266-8.5926953 2.774258-13.1240788s-6.2354396-7.4965775-11.124258-7.4959212z" fill="#bb193b"/><circle id="Oval" cx="30" cy="24" fill="#ffdc00" r="4"/><path id="Shape" d="m30 20c-.5147975.0010451-1.0244004.1029657-1.5.3 1.5004686.6163554 2.4801316 2.0778718 2.4801316 3.7s-.979663 3.0836446-2.4801316 3.7c.4755996.1970343.9852025.2989549 1.5.3 2.209139 0 4-1.790861 4-4s-1.790861-4-4-4z" fill="#fec108"/><circle id="Oval" cx="13" cy="45" fill="#ffe0b2" r="5"/><path id="Shape" d="m13 40c-.509822.0063666-1.0156711.0906748-1.5.25 2.0518727.6744179 3.4387505 2.590134 3.4387505 4.75s-1.3868778 4.0755821-3.4387505 4.75c1.8848913.6190497 3.9574938.0651104 5.2822128-1.4117638 1.3247189-1.4768743 1.6509349-3.5972782.8313906-5.4040391s-2.6298019-2.9580633-4.6136034-2.9341971z" fill="#dfc49c"/><circle id="Oval" cx="47" cy="45" fill="#ffe0b2" r="5"/><path id="Shape" d="m47 40c-.509822.0063666-1.0156711.0906748-1.5.25 2.0518727.6744179 3.4387505 2.590134 3.4387505 4.75s-1.3868778 4.0755821-3.4387505 4.75c1.8848913.6190497 3.9574938.0651104 5.2822128-1.4117638 1.3247189-1.4768743 1.6509349-3.5972782.8313906-5.4040391s-2.6298019-2.9580633-4.6136034-2.9341971z" fill="#dfc49c"/><path id="Shape" d="m60 26c0-6.627417-5.372583-12-12-12-.0137806-6.75848529-4.8538456-12.54228148-11.5040745-13.74717535s-13.2118426 2.51313692-15.5959255 8.83717535c-3.1853678.34613608-6.0079851 2.2080208-7.58 5-.4379481-.0548953-.8786538-.0849434-1.32-.09-5.37183697.0012204-10.08843015 3.5723548-11.54666994 8.7424777s.69717866 10.679517 5.27666994 13.4875223c-5.01207318 3.408241-7.00378433 9.8278508-4.80103568 15.4745209 2.20274864 5.64667 8.0153707 9.0218334 14.01137208 8.1358584 5.9960014-.8859751 10.5841063-5.7979601 11.0596636-11.8403793 1.5737865 0 3.0557281-.7409708 4-2 .9442719 1.2590292 2.4262135 2 4 2 .4755573 6.0424192 5.0636622 10.9544042 11.0596636 11.8403793 5.9960014.885975 11.8086234-2.4891884 14.0113721-8.1358584 2.2027486-5.6466701.2110375-12.0662799-4.8010357-15.4745209 3.5681342-2.1727665 5.7411821-6.0523965 5.73-10.23zm-54.14 29.35c1.25-2.88 3.64-4.35 7.14-4.35s5.89 1.47 7.14 4.35c-4.1037043 3.5349499-10.17629572 3.5349499-14.28 0zm3.14-10.35c0-2.209139 1.790861-4 4-4s4 1.790861 4 4-1.790861 4-4 4c-1.060866 0-2.0782816-.4214274-2.8284271-1.1715729-.75014554-.7501455-1.1715729-1.7675611-1.1715729-2.8284271zm12.63 8.8c-1.0257151-1.9477958-2.7516791-3.4343403-4.83-4.16 1.9624772-1.6060676 2.7033296-4.2724995 1.8506481-6.6607424-.8526814-2.3882429-3.1147518-3.9825323-5.6506481-3.9825323s-4.79796665 1.5942894-5.65064811 3.9825323c-.85268147 2.3882429-.11182905 5.0546748 1.85064811 6.6607424-2.0783209.7256597-3.80428493 2.2122042-4.83 4.16-3.56164802-4.5063765-3.05644076-10.9944959 1.15983984-14.8952322 4.21628061-3.9007363 10.72403976-3.9007363 14.94032036 0s4.7214878 10.3888557 1.1598398 14.8952322zm4.37-7.8c-.2340732-3.0019533-1.5029635-5.829564-3.59-8h6.59v5c0 1.6568542-1.3431458 3-3 3zm5-3v-5h6.64c-2.0870365 2.170436-3.3559268 4.9980467-3.59 8-.8042771.0134065-1.580247-.2967357-2.153717-.8608044-.5734699-.5640688-.8963947-1.3348068-.896283-2.1391956zm8.86 12.35c1.25-2.88 3.64-4.35 7.14-4.35s5.89 1.47 7.14 4.35c-4.1037043 3.5349499-10.1762957 3.5349499-14.28 0zm3.14-10.35c0-2.209139 1.790861-4 4-4s4 1.790861 4 4-1.790861 4-4 4-4-1.790861-4-4zm15 2c.0000216 2.4691729-.8352523 4.8657394-2.37 6.8-1.0257151-1.9477958-2.7516791-3.4343403-4.83-4.16 1.9624772-1.6060676 2.7033296-4.2724995 1.8506481-6.6607424-.8526814-2.3882429-3.1147518-3.9825323-5.6506481-3.9825323s-4.7979667 1.5942894-5.6506481 3.9825323c-.8526815 2.3882429-.1118291 5.0546748 1.8506481 6.6607424-2.0783209.7256597-3.8042849 2.2122042-4.83 4.16-2.9904985-3.7837516-3.1675083-9.0742444-.4366088-13.0494231 2.7308994-3.9751787 7.732745-5.7078608 12.3374516-4.2737989 4.6047067 1.434062 7.7382591 5.7003832 7.7291572 10.523222zm-5.83-11.92c-3.9266888-1.715459-8.4486752-1.370784-12.07.92h-9.1v-7.1c2.5149632-.5133647 4.2326695-2.8476987 3.9746808-5.4015243-.2579888-2.5538256-2.4078572-4.4974552-4.9746808-4.4974552s-4.716692 1.9436296-4.9746808 4.4974552c-.2579887 2.5538256 1.4597176 4.8881596 3.9746808 5.4015243v7.1h-9.1c-3.6213248-2.290784-8.1433112-2.635459-12.07-.92-3.44554129-1.5508074-5.72277887-4.9112275-5.88629424-8.6861475s1.81461629-7.3196668 5.11315337-9.1626024c3.29853707-1.8429355 7.35416217-1.6693272 10.48314087.4487499.3001031.2000687.6841452.2248368 1.0074614.0649742.3233161-.1598625.5367869-.4800687.56-.84.023213-.3599312-.1473583-.7049055-.4474614-.9049742-1.0022971-.6732402-2.1016771-1.1892069-3.26-1.53 1.4344209-2.0914501 3.7755523-3.3788869 6.31-3.47h.29c1.7321407-.0073138 3.4186758.5548645 4.8 1.6.4418278.3313708 1.0686292.2418278 1.4-.2s.2418278-1.0686292-.2-1.4c-1.4368206-1.08209346-3.1410594-1.75272698-4.93-1.94 2.3315558-5.14486251 7.9354541-7.96718928 13.457282-6.77757612s9.466469 6.06906094 9.472718 11.71757612v.17c-1.6662638.2699658-3.2552963.893985-4.66 1.83-.4583963.3092795-.5792795.9316037-.27 1.39s.9316037.5792795 1.39.27c1.6394914-1.0940872 3.5690082-1.6722457 5.54-1.66 4.692719.0092258 8.7477796 3.2803301 9.7497411 7.8648443 1.0019614 4.5845142-1.3187349 9.2490623-5.5797411 11.2151557zm-22.17-8.08c-1.6568542 0-3-1.3431458-3-3s1.3431458-3 3-3 3 1.3431458 3 3-1.3431458 3-3 3z" fill="#000"/></g></g></svg>