<svg height="512" viewBox="0 0 128 128" width="512" xmlns="http://www.w3.org/2000/svg"><path d="m124.018 44.689-4.707-4.707v-11.162a8 8 0 0 0 -8-8h-26.441l-10.235-10.234a.8.8 0 0 0 -.109-.073.949.949 0 0 0 -.158-.106 1.441 1.441 0 0 0 -.366-.1c-.025 0-.048-.014-.074-.014h-43.386a2.7 2.7 0 0 0 -2.7 2.7v7.827h-13.058a8 8 0 0 0 -8 8v66.261a8 8 0 0 0 8 8h36.844l-1.806 12.088h-9.293a3.156 3.156 0 0 0 -3.156 3.156v.226a3.155 3.155 0 0 0 3.155 3.156h45.038a3.156 3.156 0 0 0 3.156-3.156v-.227a3.155 3.155 0 0 0 -3.156-3.155h-9.293l-1.806-12.088h36.844a8 8 0 0 0 8-8v-40.176l4.8-4.8a3.76 3.76 0 0 0 1.038-3.36 3.939 3.939 0 0 0 -1.131-2.056z" fill="#e6e7e8"/><rect fill="#6dc9f7" height="80.26" rx="7" width="110.526" x="3.784" y="17.821"/><path d="m107.31 17.821h-96.526a7 7 0 0 0 -7 7v59.6h110.526v-59.6a7 7 0 0 0 -7-7z" fill="#d4fbff"/><path d="m107.31 17.821h-96.526a7 7 0 0 0 -7 7v3.368a7.369 7.369 0 0 1 7.369-7.368h95.789a7.368 7.368 0 0 1 7.368 7.368v-3.368a7 7 0 0 0 -7-7z" fill="#fff"/><rect fill="#0089ef" height="4.539" rx="2.156" width="49.349" x="34.373" y="112.169"/><path d="m69.306 98.081h-20.517l-2.106 14.088h24.728z" fill="#0089ef"/><path d="m90.276 88.755a2.106 2.106 0 1 0 2.105 2.106 2.106 2.106 0 0 0 -2.105-2.106z" fill="#fff"/><path d="m97.644 88.755a2.106 2.106 0 1 0 2.1 2.106 2.105 2.105 0 0 0 -2.1-2.106z" fill="#0089ef"/><path d="m105.013 88.755a2.106 2.106 0 1 0 2.1 2.106 2.106 2.106 0 0 0 -2.1-2.106z" fill="#fa759e"/><path d="m93.247 30.611-23.319-23.318h-43.082a2 2 0 0 0 -2 2v75.126h68.4v-53.808z" fill="#fa759e"/><g fill="#fff"><path d="m31.709 18.866v2.208a1.7 1.7 0 0 0 1.7 1.7 1.7 1.7 0 0 0 1.7-1.7v-1.4h4.55v15.226a2.053 2.053 0 0 0 2.052 2.053 2.053 2.053 0 0 0 2.051-2.053v-15.23h4.549v1.4a1.7 1.7 0 0 0 1.7 1.7 1.7 1.7 0 0 0 1.7-1.7v-2.204a2.594 2.594 0 0 0 -2.594-2.594h-14.817a2.594 2.594 0 0 0 -2.591 2.594z"/><path d="m84.238 37.783h-30.382a1 1 0 0 1 0-2h30.382a1 1 0 0 1 0 2z"/><path d="m84.238 47.783h-50.382a1 1 0 0 1 0-2h50.382a1 1 0 0 1 0 2z"/><path d="m79.238 57.783h-45.382a1 1 0 0 1 0-2h45.382a1 1 0 0 1 0 2z"/><path d="m74.238 67.783h-40.382a1 1 0 0 1 0-2h40.382a1 1 0 0 1 0 2z"/><path d="m70.238 77.783h-36.382a1 1 0 0 1 0-2h36.382a1 1 0 0 1 0 2z"/></g><path d="m69.93 7.293v21.318a2 2 0 0 0 2 2h21.32z" fill="#ffd7e5"/><path d="m83.1 63.322-4.049 13.234 13.237-4.042 27.12-27.12a2.759 2.759 0 0 0 0-3.9l-5.291-5.294a2.758 2.758 0 0 0 -3.9 0z" fill="#ffd7e5"/><path d="m83.1 63.322 9.192 9.192 27.12-27.12a2.759 2.759 0 0 0 0-3.9l-5.295-5.294a2.758 2.758 0 0 0 -3.9 0z" fill="#0089ef"/><path d="m107.634 38.783 2.581-2.581a2.758 2.758 0 0 1 3.9 0l5.291 5.291a2.759 2.759 0 0 1 0 3.9l-2.581 2.581z" fill="#fa759e"/><path d="m114.311 63.492a1 1 0 0 0 -1 1v10.878a1 1 0 0 0 2 0v-10.878a1 1 0 0 0 -1-1z" fill="#3a2c60"/><path d="m120.115 40.786-4.8-4.8v-11.165a8.009 8.009 0 0 0 -8-8h-26.445l-10.235-10.235a1 1 0 0 0 -.707-.293h-43.082a3 3 0 0 0 -3 3v7.528h-13.062a8.009 8.009 0 0 0 -8 8v66.26a8.009 8.009 0 0 0 8 8h36.844l-1.806 12.087h-9.293a3.16 3.16 0 0 0 -3.156 3.157v.226a3.16 3.16 0 0 0 3.156 3.156h45.037a3.16 3.16 0 0 0 3.156-3.156v-.226a3.16 3.16 0 0 0 -3.156-3.157h-9.293l-1.806-12.087h36.844a8.009 8.009 0 0 0 8-8v-11.654a1 1 0 1 0 -2 0v3.992h-19.062v-11.451l19.062-19.063v7.377a1 1 0 1 0 2 0v-9.377l4.8-4.8a3.763 3.763 0 0 0 .004-5.319zm-12.8-21.965a6.007 6.007 0 0 1 6 6v9.769a3.749 3.749 0 0 0 -3.8.9l-15.266 15.265v-20.146a1 1 0 0 0 -.348-.758l-11.031-11.03zm-24.831 55.641-1.338-1.338 2.42-7.918 6.834 6.838zm2.026-11.14 23.124-23.122 7.778 7.778-23.124 23.122zm-13.582-53.615 19.905 19.9h-18.9a1 1 0 0 1 -1-1zm-60.144 9.114h13.062v64.6h-19.062v-58.6a6.007 6.007 0 0 1 6-6zm71.938 95.5v.226a1.157 1.157 0 0 1 -1.156 1.156h-45.037a1.157 1.157 0 0 1 -1.156-1.156v-.226a1.157 1.157 0 0 1 1.156-1.157h45.037a1.157 1.157 0 0 1 1.156 1.161zm-12.472-3.153h-22.406l1.806-12.087h18.794zm43.061-20.087a6.007 6.007 0 0 1 -6 6h-96.527a6.007 6.007 0 0 1 -6-6v-5.662h108.527zm-87.465-7.662v-74.126a1 1 0 0 1 1-1h42.082v20.318a3 3 0 0 0 3 3h20.321v21.144l-9.86 9.86a1 1 0 0 0 -.25.414l-4.045 13.235a1 1 0 0 0 .957 1.292 1.012 1.012 0 0 0 .292-.043l12.906-3.941v9.847zm92.854-38.732-1.875 1.874-7.778-7.778 1.874-1.874a1.761 1.761 0 0 1 2.488 0l5.291 5.291a1.759 1.759 0 0 1 0 2.487z" fill="#3a2c60"/></svg>