<svg id="Capa_1" enable-background="new 0 0 512 512" height="512" viewBox="0 0 512 512" width="512" xmlns="http://www.w3.org/2000/svg"><g><path d="m467.474 200.044-94.952-59.368-60.868-96.453c34.364-18.638 71.73-31.625 110.718-38.236h.036l23.381-3.972c37.61-6.376 70.269 26.283 63.902 63.903l-3.972 23.417c-6.203 36.549-18.012 71.684-34.817 104.234-1.116 2.167-2.258 4.326-3.428 6.475z" fill="#9dc6fb"/><path d="m378.413 457.523c-9.786 9.786-22.601 14.674-35.434 14.665-12.824 0-25.657-4.888-35.434-14.665l-112.36-112.36 136.865-136.866 74.006 74.006-13.178 144.339c-1.061 11.672-6.176 22.591-14.465 30.881z" fill="#9dc6fb"/><path d="m332.05 208.297-136.865 136.865-141.001-141.001c-19.572-19.572-19.562-51.305 0-70.868 4.145-4.145 8.951-7.501 14.166-9.94 5.233-2.458 10.883-3.99 16.715-4.526l144.329-13.187z" fill="#80b4fb"/><path d="m135.114 510.786 2.413-69.969-101.336 33.777 33.778-101.335-69.969 2.413 44.636-44.636c37.311-37.311 97.803-37.311 135.113 0 37.311 37.311 37.311 97.803 0 135.113z" fill="#e28086"/><path d="m160.296 423.104 1.297-37.604-54.461 18.154 18.154-54.461-37.604 1.297 23.989-23.989c20.052-20.052 52.562-20.052 72.614 0 20.052 20.052 20.052 52.562 0 72.614z" fill="#f6de81"/><path d="m360.972 93.543 10.974 46.217-60.293-95.536c34.364-18.638 71.729-31.625 110.718-38.236h.036l23.381-3.972c18.801-3.183 36.377 3.383 48.448 15.454-4.435-4.435-14.366-3.356-28.224 4.771l-17.241 10.112-.027.009c-28.739 16.859-58.387 37.564-87.772 61.181z" fill="#80b4fb"/><path d="m406.065 282.294-136.865 136.865c-5.959 5.959-15.627 5.959-21.585 0l-155.068-155.067c-5.967-5.967-5.968-15.635-.009-21.594l136.856-136.856c24.469-24.469 52.212-45.102 82.259-61.418l155.82 155.82c-16.306 30.056-36.948 57.79-61.408 82.25z" fill="#f6f9f9"/><path d="m141.621 313.166-49.074-49.074c-5.968-5.968-5.968-15.636-.009-21.594l136.856-136.856c24.469-24.469 52.212-45.102 82.259-61.417l49.319 49.319c-25.703 20.66-51.196 43.542-75.665 68.011l-136.856 136.855c-5.959 5.958-9.015 12.57-6.83 14.756z" fill="#dae7ef"/><path d="m512 142.428-.144.093-.308-.195z" fill="#e28086"/><circle cx="302.098" cy="209.605" fill="#30579d" r="74.202"/><path d="m312.571 201.881c-7.129-2.52-15.013-5.564-19.443-9.038-1.45-1.137-2.056-3.624-1.545-6.336.515-2.734 2.353-6.043 5.964-7.131 8.418-2.536 13.967 1.804 14.572 2.308 3.282 2.728 8.153 2.281 10.881-1s2.281-8.152-1-10.881c-1.242-1.033-5.776-4.465-12.66-5.966v-3.301c0-4.267-3.459-7.726-7.726-7.726s-7.726 3.459-7.726 7.726v3.822c-.266.073-.529.141-.798.222-8.566 2.58-14.963 9.885-16.692 19.064-1.592 8.445 1.165 16.628 7.193 21.357 4.989 3.912 11.892 7.229 23.83 11.449 8.058 2.848 7.882 9.374 7.434 12.047-.909 5.405-5.456 11.247-13.292 11.299-7.625.048-10.02-.328-15.895-4.171-3.572-2.336-8.36-1.334-10.695 2.237-2.336 3.571-1.335 8.36 2.236 10.695 6.324 4.136 10.978 5.797 16.679 6.394v3.722c0 4.267 3.459 7.726 7.726 7.726s7.726-3.459 7.726-7.726v-4.473c11.634-3.195 19.087-13.235 20.753-23.141 2.182-12.977-4.86-24.702-17.522-29.178z" fill="#a8d4a4"/></g></svg>