<svg id="Capa_1" enable-background="new 0 0 512.007 512.007" height="512" viewBox="0 0 512.007 512.007" width="512" xmlns="http://www.w3.org/2000/svg"><g><g><path d="m298.165 4.339c-5.888-5.828-15.385-5.778-21.213.11l-85.296 86.186-85.297-86.186c-5.827-5.889-15.324-5.938-21.213-.11-5.888 5.828-5.937 15.325-.11 21.213l92.23 93.191c2.934 2.964 6.797 4.449 10.662 4.449 1.906 0 3.813-.361 5.609-1.084.884.159 1.779.246 2.675.246 3.865 0 7.729-1.485 10.662-4.449l91.401-92.354c5.827-5.888 5.778-15.385-.11-21.212z" fill="#504542"/><path d="m298.165 4.339c-5.888-5.828-15.385-5.778-21.213.11l-85.296 86.186v32.073c.636-.163 1.267-.352 1.882-.599.884.159 1.779.246 2.675.246 3.865 0 7.729-1.485 10.662-4.449l91.401-92.354c5.826-5.889 5.777-15.386-.111-21.213z" fill="#182831"/></g><g><path d="m404.382 512.007h26.629c8.284 0 15-6.716 15-15v-56.318l-37.02-10-37.02 10 18.034 60.596c1.893 6.361 7.74 10.722 14.377 10.722z" fill="#182831"/><path d="m106.156 512h-26.629c-8.284 0-15-6.716-15-15v-56.318l37.02-10 37.02 10-18.034 60.596c-1.894 6.361-7.741 10.722-14.377 10.722z" fill="#504542"/></g><g><g><g><path d="m373.307 446.399h-335.753c-20.739 0-37.551-16.812-37.551-37.551v-265.696c0-20.739 16.812-37.551 37.551-37.551h335.753l10 170.399z" fill="#ecbd3e"/><path d="m373.307 105.601h-181.652v340.798h182.015l9.637-170.399z" fill="#e79e37"/></g><g><path d="m279.725 387.464h-176.139c-24.114 0-43.662-19.548-43.662-43.662v-135.603c0-24.114 19.548-43.662 43.662-43.662h176.139c24.114 0 43.662 19.548 43.662 43.662v135.603c0 24.113-19.548 43.662-43.662 43.662z" fill="#eff5ff"/><path d="m279.725 164.536h-88.07v222.927h88.07c24.114 0 43.662-19.548 43.662-43.662v-135.602c0-24.114-19.548-43.663-43.662-43.663z" fill="#bfdafe"/></g></g><g><path d="m472.144 105.602h-98.474v262.907l63.355 10 74.979-10v-223.048c-.001-22.014-17.846-39.859-39.86-39.859z" fill="#504542"/><g fill="#eff5ff"><path d="m447.025 203.038h-10.16c-8.284 0-15-6.716-15-15s6.716-15 15-15h10.16c8.284 0 15 6.716 15 15s-6.716 15-15 15z"/><path d="m447.025 263.038h-10.16c-8.284 0-15-6.716-15-15s6.716-15 15-15h10.16c8.284 0 15 6.716 15 15s-6.716 15-15 15z"/><path d="m447.025 323.038h-10.16c-8.284 0-15-6.716-15-15s6.716-15 15-15h10.16c8.284 0 15 6.716 15 15s-6.716 15-15 15z"/></g><path d="m373.67 368.509v77.89h98.474c22.014 0 39.86-17.846 39.86-39.859v-38.03h-138.334z" fill="#e17734"/></g></g></g></svg>